Coordinates
version=1
nRows=16
nColumns=30
inDegrees=yes

Units are S.I. units (second, meters, Newtons, ...)
Angles are in degrees.

endheader
time	floatyaw	floatroll	floatpitch	floatx	floaty	floatz	pro_sup_l	deviation_l	flexion_l	cmc_flexion_l	cmc_abduction_l	mp_flexion_l	ip_flexion_l	2mcp_flexion_l	2mcp_abduction_l	2pm_flexion_l	2md_flexion_l	3mcp_flexion_l	3mcp_abduction_l	3pm_flexion_l	3md_flexion_l	4mcp_flexion_l	4mcp_abduction_l	4pm_flexion_l	4md_flexion_l	5mcp_flexion_l	5mcp_abduction_l	5pm_flexion_l	5md_flexion_l
-1.495000	-160.147433	-5.066637	-73.570646	0.076863	-0.180435	-0.021587	97.989603	0.039288	-1.563903	14.979610	-0.349406	-25.112483	-40.644604	30.575685	6.788072	41.902048	29.206376	24.942822	4.096705	43.184389	28.707079	14.296275	-4.410651	51.331537	35.585725	0.381940	-7.847519	61.971455	42.868714
-1.485000	-160.147433	-5.066637	-73.570646	0.076863	-0.180436	-0.021592	97.995975	0.038330	-1.565461	14.972388	-0.364755	-25.122056	-40.647890	30.574605	6.784530	41.915769	29.214424	24.942090	4.094645	43.190592	28.709031	14.292692	-4.411104	51.343931	35.588301	0.381103	-7.849347	61.981763	42.873835
-1.475000	-160.147433	-5.066637	-73.570646	0.076864	-0.180435	-0.021595	98.004077	0.039748	-1.567230	14.963206	-0.377363	-25.128887	-40.654245	30.581756	6.779667	41.928804	29.216839	24.947355	4.091089	43.197348	28.708882	14.295299	-4.410206	51.348479	35.585915	0.382625	-7.848838	61.994186	42.876031
-1.465000	-160.147433	-5.066637	-73.570646	0.076866	-0.180432	-0.021594	98.013458	0.043419	-1.567916	14.953708	-0.388271	-25.134759	-40.663536	30.594932	6.775111	41.937365	29.213043	24.955577	4.086348	43.204344	28.707888	14.301271	-4.407816	51.344405	35.579661	0.383663	-7.845954	62.009626	42.876701
-1.455000	-160.147433	-5.066637	-73.570646	0.076867	-0.180428	-0.021592	98.023092	0.048191	-1.566812	14.944639	-0.399433	-25.142637	-40.676365	30.610912	6.772260	41.939722	29.204013	24.963834	4.080854	43.211930	28.707358	14.306893	-4.404272	51.334025	35.571698	0.381180	-7.841598	62.029203	42.877834
-1.445000	-160.147433	-5.066637	-73.570646	0.076868	-0.180423	-0.021589	98.031381	0.052103	-1.563713	14.934606	-0.411128	-25.153996	-40.692020	30.627159	6.771603	41.936191	29.191747	24.970193	4.075148	43.220853	28.708467	14.309220	-4.400462	51.321600	35.564526	0.373833	-7.837047	62.051580	42.880319
-1.435000	-160.147433	-5.066637	-73.570646	0.076867	-0.180419	-0.021588	98.036916	0.053382	-1.558604	14.920711	-0.419692	-25.167126	-40.707034	30.642750	6.772649	41.928397	29.178601	24.973743	4.069861	43.232084	28.712292	14.307416	-4.397602	51.311547	35.560262	0.363654	-7.833206	62.071296	42.882796
-1.425000	-160.147433	-5.066637	-73.570646	0.076867	-0.180412	-0.021590	98.039202	0.051553	-1.551462	14.900740	-0.417777	-25.177951	-40.716196	30.657973	6.774407	41.918565	29.166851	24.974374	4.065624	43.246392	28.719592	14.303107	-4.396675	51.306658	35.560053	0.355931	-7.830227	62.080142	42.882193
-1.415000	-160.147433	-5.066637	-73.570646	0.076867	-0.180400	-0.021598	98.038383	0.047766	-1.542394	14.875181	-0.397950	-25.182910	-40.715713	30.673012	6.775986	41.909236	29.158653	24.972754	4.062923	43.263548	28.730225	14.299470	-4.397776	51.307002	35.563753	0.356489	-7.827779	62.071698	42.876058
-1.405000	-160.147433	-5.066637	-73.570646	0.076869	-0.180380	-0.021615	98.033944	0.044157	-1.532117	14.847389	-0.357695	-25.181792	-40.706129	30.686833	6.776966	41.903341	29.156205	24.970443	4.061966	43.281718	28.742739	14.299578	-4.399728	51.310090	35.570008	0.367718	-7.825837	62.046572	42.865277
-1.395000	-160.147433	-5.066637	-73.570646	0.076870	-0.180351	-0.021644	98.023551	0.042916	-1.522407	14.821777	-0.302343	-25.178643	-40.692820	30.697189	6.777464	41.904209	29.161728	24.969739	4.062615	43.297775	28.754724	14.304942	-4.400373	51.312329	35.576827	0.386174	-7.825426	62.014558	42.855126
-1.385000	-160.147433	-5.066637	-73.570646	0.076868	-0.180316	-0.021690	98.003442	0.045933	-1.515986	14.801489	-0.243794	-25.180241	-40.683779	30.701825	6.778046	41.914910	29.176806	24.972991	4.064410	43.308611	28.763828	14.315015	-4.397542	51.311039	35.582406	0.403764	-7.828582	61.991430	42.853470
-1.375000	-160.147433	-5.066637	-73.570646	0.076856	-0.180276	-0.021754	97.970553	0.055213	-1.515587	14.787217	-0.195691	-25.193070	-40.686176	30.700062	6.779608	41.936668	29.201113	24.981551	4.066686	43.312750	28.768834	14.327773	-4.390267	51.305859	35.585810	0.412053	-7.837222	61.991465	42.866740
-1.365000	-160.147433	-5.066637	-73.570646	0.076829	-0.180234	-0.021835	97.924933	0.073276	-1.522644	14.777544	-0.167676	-25.220117	-40.703371	30.693756	6.783229	41.967091	29.231232	24.994965	4.068757	43.311314	28.770108	14.340895	-4.379516	51.298721	35.587170	0.407176	-7.851503	62.019675	42.895844
-1.355000	-160.147433	-5.066637	-73.570646	0.076784	-0.180188	-0.021930	97.870420	0.102615	-1.536456	14.769932	-0.161429	-25.258862	-40.733323	30.687042	6.789852	41.999570	29.260612	25.011021	4.070082	43.307614	28.769175	14.352953	-4.367984	51.292472	35.587375	0.392391	-7.868838	62.068181	42.934421
-1.345000	-160.147433	-5.066637	-73.570646	0.076718	-0.180134	-0.022036	97.812765	0.144133	-1.554410	14.761395	-0.170190	-25.301498	-40.768861	30.685113	6.799691	42.024773	29.281159	25.026790	4.070330	43.305334	28.767603	14.364131	-4.359001	51.288920	35.587471	0.376766	-7.884486	62.118926	42.970732
